<?xml version="1.0" standalone="no"?>
<svg xmlns="http://www.w3.org/2000/svg" xmlns:xlink="http://www.w3.org/1999/xlink" height="512px" width="512px">
  <defs>
    <pattern id="doodad" width="64.09" height="111" viewBox="0 0 34.64101615137755 60" patternUnits="userSpaceOnUse" patternTransform="rotate(254)">
      <rect width="100%" height="100%" fill="rgba(235, 244, 255,1)"/>
      <path d="M51.96 30L51.96 50L34.64 60L34.64 40z" stroke-linejoin="miter" fill="rgba(44, 122, 123,1)"/>
      <path d="M17.32 30L17.32 50L0 60L0 40z" stroke-linejoin="miter" fill="rgba(44, 122, 123,1)"/>
      <path d="M34.64 0L34.64 20L17.32 30L17.32 10z" stroke-linejoin="miter" fill="rgba(44, 122, 123,1)"/>
      <path d="M34.64 60L34.64 80L17.32 90L17.32 70z" stroke-linejoin="miter" fill="rgba(44, 122, 123,1)"/>
      <path d="M34.64 60L17.32 50L17.32 30L34.64 40z" stroke-linejoin="miter" fill="rgba(26, 32, 44,1)"/>
      <path d="M0 60L-17.32 50L-17.32 30L0 40z" stroke-linejoin="miter" fill="rgba(26, 32, 44,1)"/>
      <path d="M17.32 30L0 20L0 0L17.32 10z" stroke-linejoin="miter" fill="rgba(26, 32, 44,1)"/>
      <path d="M17.32 90L0 80L0 60L17.32 70z" stroke-linejoin="miter" fill="rgba(26, 32, 44,1)"/>
      <path d="M25.11 45.5L25.11 34.5L34.64 29L34.64 40z" stroke-linejoin="miter" fill="rgba(44, 122, 123,1)"/>
      <path d="M-9.53 45.5L-9.53 34.5L0 29L0 40z" stroke-linejoin="miter" fill="rgba(44, 122, 123,1)"/>
      <path d="M7.79 15.5L7.79 4.5L17.32-1L17.32 10z" stroke-linejoin="miter" fill="rgba(44, 122, 123,1)"/>
      <path d="M7.79 75.5L7.79 64.5L17.32 59L17.32 70z" stroke-linejoin="miter" fill="rgba(44, 122, 123,1)"/>
      <path d="M34.64 29L44.17 34.5L44.17 45.5L34.64 40z" stroke-linejoin="miter" fill="rgba(26, 32, 44,1)"/>
      <path d="M0 29L9.53 34.5L9.53 45.5L0 40z" stroke-linejoin="miter" fill="rgba(26, 32, 44,1)"/>
      <path d="M17.32-1L26.85 4.5L26.85 15.5L17.32 10z" stroke-linejoin="miter" fill="rgba(26, 32, 44,1)"/>
      <path d="M17.32 59L26.85 64.5L26.85 75.5L17.32 70z" stroke-linejoin="miter" fill="rgba(26, 32, 44,1)"/>
      <path d="M44.17 45.5L34.64 51L25.11 45.5L34.64 40z" stroke-linejoin="miter" background="true" fill="rgba(44, 122, 123,1)"/>
      <path d="M9.53 45.5L0 51L-9.53 45.5L0 40z" stroke-linejoin="miter" background="true" fill="rgba(44, 122, 123,1)"/>
      <path d="M26.85 15.5L17.32 21L7.79 15.5L17.32 10z" stroke-linejoin="miter" background="true" fill="rgba(44, 122, 123,1)"/>
      <path d="M26.85 75.5L17.32 81L7.79 75.5L17.32 70z" stroke-linejoin="miter" background="true" fill="rgba(44, 122, 123,1)"/>
      <path d="M34.64 42.75L32.26 41.38L32.26 38.63L34.64 40z" stroke-linejoin="miter" fill="rgba(26, 32, 44,1)"/>
      <path d="M0 42.75L-2.38 41.38L-2.38 38.63L0 40z" stroke-linejoin="miter" fill="rgba(26, 32, 44,1)"/>
      <path d="M17.32 12.75L14.94 11.38L14.94 8.63L17.32 10z" stroke-linejoin="miter" fill="rgba(26, 32, 44,1)"/>
      <path d="M17.32 72.75L14.94 71.38L14.94 68.63L17.32 70z" stroke-linejoin="miter" fill="rgba(26, 32, 44,1)"/>
      <path d="M37.02 38.63L37.02 41.38L34.64 42.75L34.64 40z" stroke-linejoin="miter" fill="rgba(44, 122, 123,1)"/>
      <path d="M2.38 38.63L2.38 41.38L0 42.75L0 40z" stroke-linejoin="miter" fill="rgba(44, 122, 123,1)"/>
      <path d="M19.7 8.62L19.7 11.38L17.32 12.75L17.32 10z" stroke-linejoin="miter" fill="rgba(44, 122, 123,1)"/>
      <path d="M19.7 68.63L19.7 71.38L17.32 72.75L17.32 70z" stroke-linejoin="miter" fill="rgba(44, 122, 123,1)"/>
      <path d="M32.26 38.63L34.64 37.25L37.02 38.63L34.64 40z" stroke-linejoin="miter" background="true" fill="rgba(26, 32, 44,1)"/>
      <path d="M-2.38 38.63L0 37.25L2.38 38.63L0 40z" stroke-linejoin="miter" background="true" fill="rgba(26, 32, 44,1)"/>
      <path d="M14.94 8.63L17.32 7.25L19.7 8.62L17.32 10z" stroke-linejoin="miter" background="true" fill="rgba(26, 32, 44,1)"/>
      <path d="M14.94 68.63L17.32 67.25L19.7 68.63L17.32 70z" stroke-linejoin="miter" background="true" fill="rgba(26, 32, 44,1)"/>
      <path d="M32.38 41.31L32.38 38.69L34.64 37.39L34.64 40z" stroke-linejoin="miter" fill="rgba(44, 122, 123,1)"/>
      <path d="M-2.26 41.31L-2.26 38.69L0 37.39L0 40z" stroke-linejoin="miter" fill="rgba(44, 122, 123,1)"/>
      <path d="M15.06 11.31L15.06 8.69L17.32 7.39L17.32 10z" stroke-linejoin="miter" fill="rgba(44, 122, 123,1)"/>
      <path d="M15.06 71.31L15.06 68.69L17.32 67.39L17.32 70z" stroke-linejoin="miter" fill="rgba(44, 122, 123,1)"/>
      <path d="M34.64 37.39L36.9 38.69L36.9 41.31L34.64 40z" stroke-linejoin="miter" fill="rgba(26, 32, 44,1)"/>
      <path d="M0 37.39L2.26 38.69L2.26 41.31L0 40z" stroke-linejoin="miter" fill="rgba(26, 32, 44,1)"/>
      <path d="M17.32 7.39L19.58 8.69L19.58 11.31L17.32 10z" stroke-linejoin="miter" fill="rgba(26, 32, 44,1)"/>
      <path d="M17.32 67.39L19.58 68.69L19.58 71.31L17.32 70z" stroke-linejoin="miter" fill="rgba(26, 32, 44,1)"/>
      <path d="M36.9 41.31L34.64 42.61L32.38 41.31L34.64 40z" stroke-linejoin="miter" background="true" fill="rgba(44, 122, 123,1)"/>
      <path d="M2.26 41.31L0 42.61L-2.26 41.31L0 40z" stroke-linejoin="miter" background="true" fill="rgba(44, 122, 123,1)"/>
      <path d="M19.58 11.31L17.32 12.61L15.06 11.31L17.32 10z" stroke-linejoin="miter" background="true" fill="rgba(44, 122, 123,1)"/>
      <path d="M19.58 71.31L17.32 72.61L15.06 71.31L17.32 70z" stroke-linejoin="miter" background="true" fill="rgba(44, 122, 123,1)"/>
    </pattern>
  </defs>
  <rect fill="url(#doodad)" height="200%" width="200%"/>
</svg>
